<mxfile host="Electron" modified="2024-10-03T09:39:45.688Z" agent="Mozilla/5.0 (Windows NT 10.0; Win64; x64) AppleWebKit/537.36 (KHTML, like Gecko) draw.io/22.0.2 Chrome/114.0.5735.289 Electron/25.8.4 Safari/537.36" etag="v_u5l_E0zbrd6iC4yElL" version="22.0.2" type="device">
  <diagram name="Page-1" id="58cdce13-f638-feb5-8d6f-7d28b1aa9fa0">
    <mxGraphModel dx="1219" dy="713" grid="1" gridSize="10" guides="1" tooltips="1" connect="1" arrows="1" fold="1" page="1" pageScale="1" pageWidth="1100" pageHeight="850" background="none" math="0" shadow="0">
      <root>
        <mxCell id="0" />
        <mxCell id="1" parent="0" />
        <mxCell id="8bAAXkou12h0lEfON1XA-119" style="edgeStyle=orthogonalEdgeStyle;rounded=0;orthogonalLoop=1;jettySize=auto;html=1;exitX=0;exitY=0.5;exitDx=0;exitDy=0;exitPerimeter=0;" parent="1" source="bzfqSmUNicRm9-nV7HIu-160" target="8bAAXkou12h0lEfON1XA-115" edge="1">
          <mxGeometry relative="1" as="geometry">
            <Array as="points">
              <mxPoint x="702.5" y="180" />
              <mxPoint x="1122.5" y="180" />
            </Array>
          </mxGeometry>
        </mxCell>
        <mxCell id="bzfqSmUNicRm9-nV7HIu-160" value="" style="shape=line;html=1;strokeWidth=6;strokeColor=#000000;rotation=90;fillColor=#000000;" parent="1" vertex="1">
          <mxGeometry x="513.75" y="481.25" width="377.5" height="10" as="geometry" />
        </mxCell>
        <mxCell id="bzfqSmUNicRm9-nV7HIu-169" value="" style="ellipse;html=1;shape=endState;fillColor=#000000;strokeColor=#ff0000;" parent="1" vertex="1">
          <mxGeometry x="1410" y="85" width="30" height="30" as="geometry" />
        </mxCell>
        <mxCell id="Yj1KJ74iZ36UAPx4u5bu-6" value="" style="edgeStyle=orthogonalEdgeStyle;rounded=0;orthogonalLoop=1;jettySize=auto;html=1;" parent="1" source="8bAAXkou12h0lEfON1XA-2" target="8bAAXkou12h0lEfON1XA-3" edge="1">
          <mxGeometry relative="1" as="geometry" />
        </mxCell>
        <mxCell id="8bAAXkou12h0lEfON1XA-2" value="" style="ellipse;html=1;shape=startState;fillColor=#000000;strokeColor=#ff0000;rounded=1;shadow=0;comic=0;labelBackgroundColor=none;fontFamily=Verdana;fontSize=12;fontColor=#000000;align=center;direction=south;" parent="1" vertex="1">
          <mxGeometry x="85" y="565" width="30" height="30" as="geometry" />
        </mxCell>
        <mxCell id="R_if8HKXHMpn8NLjSrms-2" value="" style="edgeStyle=orthogonalEdgeStyle;rounded=0;orthogonalLoop=1;jettySize=auto;html=1;" parent="1" source="8bAAXkou12h0lEfON1XA-3" target="8bAAXkou12h0lEfON1XA-5" edge="1">
          <mxGeometry relative="1" as="geometry">
            <mxPoint x="220" y="770" as="targetPoint" />
          </mxGeometry>
        </mxCell>
        <mxCell id="8bAAXkou12h0lEfON1XA-3" value="Зайти в приложение" style="rounded=1;whiteSpace=wrap;html=1;arcSize=24;fillColor=default;strokeColor=default;shadow=0;comic=0;labelBackgroundColor=none;fontFamily=Verdana;fontSize=16;fontColor=#000000;align=center;" parent="1" vertex="1">
          <mxGeometry x="40" y="740" width="120" height="60" as="geometry" />
        </mxCell>
        <mxCell id="8bAAXkou12h0lEfON1XA-8" value="" style="edgeStyle=orthogonalEdgeStyle;rounded=0;orthogonalLoop=1;jettySize=auto;html=1;" parent="1" source="8bAAXkou12h0lEfON1XA-5" target="8bAAXkou12h0lEfON1XA-7" edge="1">
          <mxGeometry relative="1" as="geometry" />
        </mxCell>
        <mxCell id="Xvav63jD-Fan8T9vVufA-3" value="&lt;font style=&quot;font-size: 25px;&quot;&gt;да&lt;/font&gt;" style="edgeLabel;html=1;align=center;verticalAlign=middle;resizable=0;points=[];" vertex="1" connectable="0" parent="8bAAXkou12h0lEfON1XA-8">
          <mxGeometry x="-0.1277" y="1" relative="1" as="geometry">
            <mxPoint as="offset" />
          </mxGeometry>
        </mxCell>
        <mxCell id="8bAAXkou12h0lEfON1XA-20" value="" style="edgeStyle=orthogonalEdgeStyle;rounded=0;orthogonalLoop=1;jettySize=auto;html=1;" parent="1" source="8bAAXkou12h0lEfON1XA-5" target="8bAAXkou12h0lEfON1XA-19" edge="1">
          <mxGeometry relative="1" as="geometry" />
        </mxCell>
        <mxCell id="Xvav63jD-Fan8T9vVufA-2" value="&lt;font style=&quot;font-size: 25px;&quot;&gt;нет&lt;/font&gt;" style="edgeLabel;html=1;align=center;verticalAlign=middle;resizable=0;points=[];" vertex="1" connectable="0" parent="8bAAXkou12h0lEfON1XA-20">
          <mxGeometry x="-0.1028" y="3" relative="1" as="geometry">
            <mxPoint as="offset" />
          </mxGeometry>
        </mxCell>
        <mxCell id="8bAAXkou12h0lEfON1XA-5" value="&lt;font style=&quot;font-size: 16px;&quot;&gt;Работать с&lt;br&gt;сотрудниками&lt;br&gt;ВлГУ?&lt;/font&gt;" style="rhombus;whiteSpace=wrap;html=1;fontSize=16;" parent="1" vertex="1">
          <mxGeometry x="290" y="730" width="215" height="80" as="geometry" />
        </mxCell>
        <mxCell id="8bAAXkou12h0lEfON1XA-10" value="" style="edgeStyle=orthogonalEdgeStyle;rounded=0;orthogonalLoop=1;jettySize=auto;html=1;" parent="1" source="8bAAXkou12h0lEfON1XA-7" target="8bAAXkou12h0lEfON1XA-9" edge="1">
          <mxGeometry relative="1" as="geometry" />
        </mxCell>
        <mxCell id="Xvav63jD-Fan8T9vVufA-5" value="&lt;font style=&quot;font-size: 25px;&quot;&gt;да&lt;/font&gt;" style="edgeLabel;html=1;align=center;verticalAlign=middle;resizable=0;points=[];" vertex="1" connectable="0" parent="8bAAXkou12h0lEfON1XA-10">
          <mxGeometry x="-0.1992" y="-2" relative="1" as="geometry">
            <mxPoint as="offset" />
          </mxGeometry>
        </mxCell>
        <mxCell id="8bAAXkou12h0lEfON1XA-12" value="" style="edgeStyle=orthogonalEdgeStyle;rounded=0;orthogonalLoop=1;jettySize=auto;html=1;" parent="1" source="8bAAXkou12h0lEfON1XA-7" target="8bAAXkou12h0lEfON1XA-11" edge="1">
          <mxGeometry relative="1" as="geometry" />
        </mxCell>
        <mxCell id="Xvav63jD-Fan8T9vVufA-24" value="&lt;font style=&quot;font-size: 25px;&quot;&gt;нет&lt;br&gt;&lt;/font&gt;" style="edgeLabel;html=1;align=center;verticalAlign=middle;resizable=0;points=[];" vertex="1" connectable="0" parent="8bAAXkou12h0lEfON1XA-12">
          <mxGeometry x="-0.2059" y="-1" relative="1" as="geometry">
            <mxPoint as="offset" />
          </mxGeometry>
        </mxCell>
        <mxCell id="8bAAXkou12h0lEfON1XA-7" value="&lt;font style=&quot;font-size: 16px;&quot;&gt;Добавить &lt;br&gt;сотрудника?&lt;/font&gt;" style="rhombus;whiteSpace=wrap;html=1;fontSize=16;" parent="1" vertex="1">
          <mxGeometry x="322.5" y="580" width="150" height="80" as="geometry" />
        </mxCell>
        <mxCell id="8bAAXkou12h0lEfON1XA-9" value="Добавление сотрудника" style="whiteSpace=wrap;html=1;rounded=1;fontSize=16;" parent="1" vertex="1">
          <mxGeometry x="542.5" y="590" width="120" height="60" as="geometry" />
        </mxCell>
        <mxCell id="8bAAXkou12h0lEfON1XA-13" value="Изменение информации о сотруднике" style="whiteSpace=wrap;html=1;rounded=1;fontSize=16;" parent="1" vertex="1">
          <mxGeometry x="552.5" y="440" width="120" height="60" as="geometry" />
        </mxCell>
        <mxCell id="8bAAXkou12h0lEfON1XA-15" value="&lt;font style=&quot;font-size: 16px;&quot;&gt;Удалить&lt;br&gt;&amp;nbsp;сотрудника?&lt;/font&gt;" style="rhombus;whiteSpace=wrap;html=1;fontSize=16;" parent="1" vertex="1">
          <mxGeometry x="322.5" y="280" width="150" height="80" as="geometry" />
        </mxCell>
        <mxCell id="8bAAXkou12h0lEfON1XA-17" value="Удаление сотрудника" style="whiteSpace=wrap;html=1;rounded=1;fontSize=16;" parent="1" vertex="1">
          <mxGeometry x="552.5" y="290" width="120" height="60" as="geometry" />
        </mxCell>
        <mxCell id="8bAAXkou12h0lEfON1XA-32" value="" style="edgeStyle=orthogonalEdgeStyle;rounded=0;orthogonalLoop=1;jettySize=auto;html=1;" parent="1" source="8bAAXkou12h0lEfON1XA-19" target="8bAAXkou12h0lEfON1XA-23" edge="1">
          <mxGeometry relative="1" as="geometry" />
        </mxCell>
        <mxCell id="Xvav63jD-Fan8T9vVufA-36" value="&lt;font style=&quot;font-size: 25px;&quot;&gt;да&lt;/font&gt;" style="edgeLabel;html=1;align=center;verticalAlign=middle;resizable=0;points=[];" vertex="1" connectable="0" parent="8bAAXkou12h0lEfON1XA-32">
          <mxGeometry x="-0.0103" y="1" relative="1" as="geometry">
            <mxPoint as="offset" />
          </mxGeometry>
        </mxCell>
        <mxCell id="8bAAXkou12h0lEfON1XA-34" value="" style="edgeStyle=orthogonalEdgeStyle;rounded=0;orthogonalLoop=1;jettySize=auto;html=1;" parent="1" source="8bAAXkou12h0lEfON1XA-19" target="8bAAXkou12h0lEfON1XA-33" edge="1">
          <mxGeometry relative="1" as="geometry" />
        </mxCell>
        <mxCell id="Xvav63jD-Fan8T9vVufA-35" value="&lt;font style=&quot;font-size: 25px;&quot;&gt;нет&lt;br&gt;&lt;/font&gt;" style="edgeLabel;html=1;align=center;verticalAlign=middle;resizable=0;points=[];" vertex="1" connectable="0" parent="8bAAXkou12h0lEfON1XA-34">
          <mxGeometry x="0.0142" y="1" relative="1" as="geometry">
            <mxPoint as="offset" />
          </mxGeometry>
        </mxCell>
        <mxCell id="8bAAXkou12h0lEfON1XA-19" value="&lt;font style=&quot;font-size: 16px;&quot;&gt;Работать с&lt;br&gt;ключами от аудиторий ВлГУ?&lt;/font&gt;" style="rhombus;whiteSpace=wrap;html=1;fontSize=16;" parent="1" vertex="1">
          <mxGeometry x="707.5" y="715.25" width="200" height="110" as="geometry" />
        </mxCell>
        <mxCell id="8bAAXkou12h0lEfON1XA-23" value="&lt;font style=&quot;font-size: 16px;&quot;&gt;Добавить &lt;br&gt;ключ?&lt;/font&gt;" style="rhombus;whiteSpace=wrap;html=1;fontSize=16;" parent="1" vertex="1">
          <mxGeometry x="732.5" y="591" width="150" height="80" as="geometry" />
        </mxCell>
        <mxCell id="Yj1KJ74iZ36UAPx4u5bu-15" value="" style="edgeStyle=orthogonalEdgeStyle;rounded=0;orthogonalLoop=1;jettySize=auto;html=1;" parent="1" source="8bAAXkou12h0lEfON1XA-24" edge="1">
          <mxGeometry relative="1" as="geometry">
            <mxPoint x="1092.5" y="631" as="targetPoint" />
          </mxGeometry>
        </mxCell>
        <mxCell id="8bAAXkou12h0lEfON1XA-24" value="Добавление ключа" style="whiteSpace=wrap;html=1;rounded=1;fontSize=16;" parent="1" vertex="1">
          <mxGeometry x="946.5" y="601" width="120" height="60" as="geometry" />
        </mxCell>
        <mxCell id="8bAAXkou12h0lEfON1XA-27" value="&lt;font style=&quot;font-size: 16px;&quot;&gt;Изменить &lt;br&gt;ключ?&lt;/font&gt;" style="rhombus;whiteSpace=wrap;html=1;fontSize=16;" parent="1" vertex="1">
          <mxGeometry x="732.5" y="440" width="150" height="80" as="geometry" />
        </mxCell>
        <mxCell id="8bAAXkou12h0lEfON1XA-28" value="Изменение ключа" style="whiteSpace=wrap;html=1;rounded=1;fontSize=16;" parent="1" vertex="1">
          <mxGeometry x="946.5" y="450" width="120" height="60" as="geometry" />
        </mxCell>
        <mxCell id="Yj1KJ74iZ36UAPx4u5bu-9" style="edgeStyle=orthogonalEdgeStyle;rounded=0;orthogonalLoop=1;jettySize=auto;html=1;entryX=0.315;entryY=0.853;entryDx=0;entryDy=0;entryPerimeter=0;" parent="1" source="8bAAXkou12h0lEfON1XA-30" target="8bAAXkou12h0lEfON1XA-115" edge="1">
          <mxGeometry relative="1" as="geometry">
            <Array as="points">
              <mxPoint x="807.5" y="200" />
              <mxPoint x="1142.5" y="200" />
              <mxPoint x="1142.5" y="140" />
              <mxPoint x="1141.5" y="140" />
            </Array>
          </mxGeometry>
        </mxCell>
        <mxCell id="Xvav63jD-Fan8T9vVufA-38" value="&lt;font style=&quot;font-size: 25px;&quot;&gt;нет&lt;/font&gt;" style="edgeLabel;html=1;align=center;verticalAlign=middle;resizable=0;points=[];" vertex="1" connectable="0" parent="Yj1KJ74iZ36UAPx4u5bu-9">
          <mxGeometry x="-0.8382" relative="1" as="geometry">
            <mxPoint as="offset" />
          </mxGeometry>
        </mxCell>
        <mxCell id="8bAAXkou12h0lEfON1XA-30" value="&lt;font style=&quot;font-size: 16px;&quot;&gt;Удалить &lt;br&gt;ключ?&lt;/font&gt;" style="rhombus;whiteSpace=wrap;html=1;fontSize=16;" parent="1" vertex="1">
          <mxGeometry x="732.5" y="280" width="150" height="80" as="geometry" />
        </mxCell>
        <mxCell id="8bAAXkou12h0lEfON1XA-31" value="Удаление&amp;nbsp;&lt;br&gt;ключа" style="whiteSpace=wrap;html=1;rounded=1;fontSize=16;" parent="1" vertex="1">
          <mxGeometry x="946.5" y="290" width="120" height="60" as="geometry" />
        </mxCell>
        <mxCell id="8bAAXkou12h0lEfON1XA-46" value="" style="edgeStyle=orthogonalEdgeStyle;rounded=0;orthogonalLoop=1;jettySize=auto;html=1;" parent="1" source="8bAAXkou12h0lEfON1XA-33" target="8bAAXkou12h0lEfON1XA-37" edge="1">
          <mxGeometry relative="1" as="geometry" />
        </mxCell>
        <mxCell id="Xvav63jD-Fan8T9vVufA-37" value="&lt;font style=&quot;font-size: 25px;&quot;&gt;да&lt;br&gt;&lt;/font&gt;" style="edgeLabel;html=1;align=center;verticalAlign=middle;resizable=0;points=[];" vertex="1" connectable="0" parent="8bAAXkou12h0lEfON1XA-46">
          <mxGeometry x="0.0304" y="1" relative="1" as="geometry">
            <mxPoint y="1" as="offset" />
          </mxGeometry>
        </mxCell>
        <mxCell id="8bAAXkou12h0lEfON1XA-33" value="Работать&lt;br&gt;с журналом о передвижении&lt;br&gt;ключей?" style="rhombus;whiteSpace=wrap;html=1;fontSize=16;" parent="1" vertex="1">
          <mxGeometry x="1118.5" y="713.75" width="210" height="112.5" as="geometry" />
        </mxCell>
        <mxCell id="8bAAXkou12h0lEfON1XA-37" value="&lt;font style=&quot;font-size: 16px;&quot;&gt;Добавить &lt;br&gt;запись&lt;br&gt;в журнал?&lt;/font&gt;" style="rhombus;whiteSpace=wrap;html=1;fontSize=16;" parent="1" vertex="1">
          <mxGeometry x="1138.5" y="560" width="170" height="100" as="geometry" />
        </mxCell>
        <mxCell id="8bAAXkou12h0lEfON1XA-38" value="Добавление&amp;nbsp;&lt;br&gt;записи&lt;br style=&quot;border-color: var(--border-color);&quot;&gt;в журнал" style="whiteSpace=wrap;html=1;rounded=1;fontSize=16;" parent="1" vertex="1">
          <mxGeometry x="1378.5" y="580" width="120" height="60" as="geometry" />
        </mxCell>
        <mxCell id="8bAAXkou12h0lEfON1XA-41" value="&lt;font style=&quot;font-size: 16px;&quot;&gt;Изменить&lt;br&gt;запись&lt;br style=&quot;border-color: var(--border-color);&quot;&gt;в журнале?&lt;/font&gt;" style="rhombus;whiteSpace=wrap;html=1;fontSize=16;" parent="1" vertex="1">
          <mxGeometry x="1138.5" y="390" width="170" height="110" as="geometry" />
        </mxCell>
        <mxCell id="8bAAXkou12h0lEfON1XA-42" value="Изменение&amp;nbsp;&lt;br&gt;записи&lt;br style=&quot;border-color: var(--border-color);&quot;&gt;в журнале" style="whiteSpace=wrap;html=1;rounded=1;fontSize=16;" parent="1" vertex="1">
          <mxGeometry x="1378.5" y="415" width="120" height="60" as="geometry" />
        </mxCell>
        <mxCell id="Yj1KJ74iZ36UAPx4u5bu-11" value="" style="edgeStyle=orthogonalEdgeStyle;rounded=0;orthogonalLoop=1;jettySize=auto;html=1;" parent="1" source="8bAAXkou12h0lEfON1XA-44" target="8bAAXkou12h0lEfON1XA-115" edge="1">
          <mxGeometry relative="1" as="geometry">
            <Array as="points">
              <mxPoint x="1223.5" y="170" />
              <mxPoint x="1223.5" y="170" />
            </Array>
          </mxGeometry>
        </mxCell>
        <mxCell id="Xvav63jD-Fan8T9vVufA-23" value="&lt;font style=&quot;font-size: 25px;&quot;&gt;нет&lt;/font&gt;" style="edgeLabel;html=1;align=center;verticalAlign=middle;resizable=0;points=[];" vertex="1" connectable="0" parent="Yj1KJ74iZ36UAPx4u5bu-11">
          <mxGeometry x="-0.3628" relative="1" as="geometry">
            <mxPoint y="1" as="offset" />
          </mxGeometry>
        </mxCell>
        <mxCell id="8bAAXkou12h0lEfON1XA-44" value="&lt;font style=&quot;font-size: 16px;&quot;&gt;Удалить&lt;br&gt;запись&lt;br style=&quot;border-color: var(--border-color);&quot;&gt;в журнале?&lt;br&gt;&lt;/font&gt;" style="rhombus;whiteSpace=wrap;html=1;fontSize=16;" parent="1" vertex="1">
          <mxGeometry x="1138.5" y="230" width="170" height="110" as="geometry" />
        </mxCell>
        <mxCell id="8bAAXkou12h0lEfON1XA-45" value="Удаление&lt;br&gt;&amp;nbsp;записи&lt;br style=&quot;border-color: var(--border-color);&quot;&gt;в журнале" style="whiteSpace=wrap;html=1;rounded=1;fontSize=16;" parent="1" vertex="1">
          <mxGeometry x="1378.5" y="255" width="120" height="60" as="geometry" />
        </mxCell>
        <mxCell id="8bAAXkou12h0lEfON1XA-97" style="edgeStyle=orthogonalEdgeStyle;rounded=0;orthogonalLoop=1;jettySize=auto;html=1;exitX=1;exitY=0.5;exitDx=0;exitDy=0;entryX=0.854;entryY=0.5;entryDx=0;entryDy=0;entryPerimeter=0;" parent="1" source="8bAAXkou12h0lEfON1XA-9" target="bzfqSmUNicRm9-nV7HIu-160" edge="1">
          <mxGeometry relative="1" as="geometry">
            <mxPoint x="692.5" y="620" as="targetPoint" />
            <Array as="points" />
          </mxGeometry>
        </mxCell>
        <mxCell id="8bAAXkou12h0lEfON1XA-98" style="edgeStyle=orthogonalEdgeStyle;rounded=0;orthogonalLoop=1;jettySize=auto;html=1;exitX=1;exitY=0.5;exitDx=0;exitDy=0;entryX=0.456;entryY=0.696;entryDx=0;entryDy=0;entryPerimeter=0;" parent="1" source="8bAAXkou12h0lEfON1XA-13" target="bzfqSmUNicRm9-nV7HIu-160" edge="1">
          <mxGeometry relative="1" as="geometry">
            <mxPoint x="682.5" y="490" as="targetPoint" />
            <Array as="points">
              <mxPoint x="682.5" y="470" />
            </Array>
          </mxGeometry>
        </mxCell>
        <mxCell id="8bAAXkou12h0lEfON1XA-99" style="edgeStyle=orthogonalEdgeStyle;rounded=0;orthogonalLoop=1;jettySize=auto;html=1;exitX=1;exitY=0.5;exitDx=0;exitDy=0;entryX=0.059;entryY=0.624;entryDx=0;entryDy=0;entryPerimeter=0;" parent="1" source="8bAAXkou12h0lEfON1XA-17" target="bzfqSmUNicRm9-nV7HIu-160" edge="1">
          <mxGeometry relative="1" as="geometry">
            <mxPoint x="692.5" y="320" as="targetPoint" />
            <Array as="points">
              <mxPoint x="692.5" y="320" />
            </Array>
          </mxGeometry>
        </mxCell>
        <mxCell id="8bAAXkou12h0lEfON1XA-117" style="edgeStyle=orthogonalEdgeStyle;rounded=0;orthogonalLoop=1;jettySize=auto;html=1;exitX=0;exitY=0.5;exitDx=0;exitDy=0;exitPerimeter=0;" parent="1" source="8bAAXkou12h0lEfON1XA-100" target="8bAAXkou12h0lEfON1XA-115" edge="1">
          <mxGeometry relative="1" as="geometry">
            <Array as="points">
              <mxPoint x="1094.5" y="220" />
              <mxPoint x="1162.5" y="220" />
            </Array>
          </mxGeometry>
        </mxCell>
        <mxCell id="8bAAXkou12h0lEfON1XA-100" value="" style="shape=line;html=1;strokeWidth=6;strokeColor=#000000;rotation=90;fillColor=#000000;" parent="1" vertex="1">
          <mxGeometry x="901.5" y="480" width="385" height="10" as="geometry" />
        </mxCell>
        <mxCell id="8bAAXkou12h0lEfON1XA-103" style="edgeStyle=orthogonalEdgeStyle;rounded=0;orthogonalLoop=1;jettySize=auto;html=1;exitX=1;exitY=0.5;exitDx=0;exitDy=0;entryX=0.484;entryY=0.763;entryDx=0;entryDy=0;entryPerimeter=0;" parent="1" source="8bAAXkou12h0lEfON1XA-28" target="8bAAXkou12h0lEfON1XA-100" edge="1">
          <mxGeometry relative="1" as="geometry">
            <mxPoint x="1102.5" y="480" as="targetPoint" />
            <Array as="points">
              <mxPoint x="1102.5" y="480" />
              <mxPoint x="1102.5" y="479" />
            </Array>
          </mxGeometry>
        </mxCell>
        <mxCell id="8bAAXkou12h0lEfON1XA-104" style="edgeStyle=orthogonalEdgeStyle;rounded=0;orthogonalLoop=1;jettySize=auto;html=1;exitX=1;exitY=0.5;exitDx=0;exitDy=0;entryX=0.069;entryY=0.805;entryDx=0;entryDy=0;entryPerimeter=0;" parent="1" source="8bAAXkou12h0lEfON1XA-31" target="8bAAXkou12h0lEfON1XA-100" edge="1">
          <mxGeometry relative="1" as="geometry">
            <mxPoint x="1092.5" y="320" as="targetPoint" />
          </mxGeometry>
        </mxCell>
        <mxCell id="8bAAXkou12h0lEfON1XA-121" style="edgeStyle=orthogonalEdgeStyle;rounded=0;orthogonalLoop=1;jettySize=auto;html=1;exitX=0;exitY=0.5;exitDx=0;exitDy=0;exitPerimeter=0;" parent="1" source="8bAAXkou12h0lEfON1XA-105" target="8bAAXkou12h0lEfON1XA-115" edge="1">
          <mxGeometry relative="1" as="geometry">
            <Array as="points">
              <mxPoint x="1536.5" y="220" />
              <mxPoint x="1252.5" y="220" />
            </Array>
          </mxGeometry>
        </mxCell>
        <mxCell id="8bAAXkou12h0lEfON1XA-105" value="" style="shape=line;html=1;strokeWidth=6;strokeColor=#000000;rotation=90;fillColor=#000000;" parent="1" vertex="1">
          <mxGeometry x="1341" y="442.5" width="390" height="10" as="geometry" />
        </mxCell>
        <mxCell id="8bAAXkou12h0lEfON1XA-106" style="edgeStyle=orthogonalEdgeStyle;rounded=0;orthogonalLoop=1;jettySize=auto;html=1;exitX=1;exitY=0.5;exitDx=0;exitDy=0;entryX=0.918;entryY=0.75;entryDx=0;entryDy=0;entryPerimeter=0;" parent="1" source="8bAAXkou12h0lEfON1XA-38" target="8bAAXkou12h0lEfON1XA-105" edge="1">
          <mxGeometry relative="1" as="geometry" />
        </mxCell>
        <mxCell id="8bAAXkou12h0lEfON1XA-107" style="edgeStyle=orthogonalEdgeStyle;rounded=0;orthogonalLoop=1;jettySize=auto;html=1;exitX=1;exitY=0.5;exitDx=0;exitDy=0;entryX=0.493;entryY=0.75;entryDx=0;entryDy=0;entryPerimeter=0;" parent="1" source="8bAAXkou12h0lEfON1XA-42" target="8bAAXkou12h0lEfON1XA-105" edge="1">
          <mxGeometry relative="1" as="geometry" />
        </mxCell>
        <mxCell id="8bAAXkou12h0lEfON1XA-108" style="edgeStyle=orthogonalEdgeStyle;rounded=0;orthogonalLoop=1;jettySize=auto;html=1;exitX=1;exitY=0.5;exitDx=0;exitDy=0;entryX=0.082;entryY=0.723;entryDx=0;entryDy=0;entryPerimeter=0;" parent="1" source="8bAAXkou12h0lEfON1XA-45" target="8bAAXkou12h0lEfON1XA-105" edge="1">
          <mxGeometry relative="1" as="geometry" />
        </mxCell>
        <mxCell id="8bAAXkou12h0lEfON1XA-123" style="edgeStyle=orthogonalEdgeStyle;rounded=0;orthogonalLoop=1;jettySize=auto;html=1;exitX=0.5;exitY=0;exitDx=0;exitDy=0;" parent="1" source="8bAAXkou12h0lEfON1XA-15" target="8bAAXkou12h0lEfON1XA-115" edge="1">
          <mxGeometry relative="1" as="geometry">
            <mxPoint x="1052.5" y="130" as="targetPoint" />
            <Array as="points">
              <mxPoint x="397.5" y="160" />
              <mxPoint x="1102.5" y="160" />
            </Array>
          </mxGeometry>
        </mxCell>
        <mxCell id="Xvav63jD-Fan8T9vVufA-39" value="&lt;font style=&quot;font-size: 25px;&quot;&gt;нет&lt;/font&gt;" style="edgeLabel;html=1;align=center;verticalAlign=middle;resizable=0;points=[];" vertex="1" connectable="0" parent="8bAAXkou12h0lEfON1XA-123">
          <mxGeometry x="-0.8802" y="3" relative="1" as="geometry">
            <mxPoint as="offset" />
          </mxGeometry>
        </mxCell>
        <mxCell id="8bAAXkou12h0lEfON1XA-125" value="" style="edgeStyle=orthogonalEdgeStyle;rounded=0;orthogonalLoop=1;jettySize=auto;html=1;" parent="1" source="8bAAXkou12h0lEfON1XA-115" target="bzfqSmUNicRm9-nV7HIu-169" edge="1">
          <mxGeometry relative="1" as="geometry" />
        </mxCell>
        <mxCell id="Xvav63jD-Fan8T9vVufA-40" value="&lt;font style=&quot;font-size: 25px;&quot;&gt;нет&lt;/font&gt;" style="edgeLabel;html=1;align=center;verticalAlign=middle;resizable=0;points=[];" vertex="1" connectable="0" parent="8bAAXkou12h0lEfON1XA-125">
          <mxGeometry x="-0.0582" y="-1" relative="1" as="geometry">
            <mxPoint as="offset" />
          </mxGeometry>
        </mxCell>
        <mxCell id="8bAAXkou12h0lEfON1XA-115" value="&lt;font style=&quot;font-size: 25px;&quot;&gt;Сделать&lt;br style=&quot;font-size: 25px;&quot;&gt;что-то ещё?&lt;/font&gt;" style="rhombus;whiteSpace=wrap;html=1;fontSize=25;" parent="1" vertex="1">
          <mxGeometry x="1062.5" y="50" width="250" height="100" as="geometry" />
        </mxCell>
        <mxCell id="Yj1KJ74iZ36UAPx4u5bu-1" value="" style="edgeStyle=orthogonalEdgeStyle;rounded=0;orthogonalLoop=1;jettySize=auto;html=1;exitX=0;exitY=0.5;exitDx=0;exitDy=0;" parent="1" source="8bAAXkou12h0lEfON1XA-115" edge="1">
          <mxGeometry relative="1" as="geometry">
            <mxPoint x="180" y="771.0000610351562" as="targetPoint" />
            <mxPoint x="1240" y="100" as="sourcePoint" />
          </mxGeometry>
        </mxCell>
        <mxCell id="Xvav63jD-Fan8T9vVufA-41" value="&lt;font style=&quot;font-size: 25px;&quot;&gt;да&lt;/font&gt;" style="edgeLabel;html=1;align=center;verticalAlign=middle;resizable=0;points=[];" vertex="1" connectable="0" parent="Yj1KJ74iZ36UAPx4u5bu-1">
          <mxGeometry x="-0.922" relative="1" as="geometry">
            <mxPoint x="-1" as="offset" />
          </mxGeometry>
        </mxCell>
        <mxCell id="8bAAXkou12h0lEfON1XA-11" value="&lt;font style=&quot;font-size: 16px;&quot;&gt;Изменить&lt;br&gt;информацию о сотруднике?&lt;/font&gt;" style="rhombus;whiteSpace=wrap;html=1;fontSize=16;" parent="1" vertex="1">
          <mxGeometry x="302.5" y="420" width="190" height="100" as="geometry" />
        </mxCell>
        <mxCell id="Xvav63jD-Fan8T9vVufA-6" value="" style="edgeStyle=orthogonalEdgeStyle;rounded=0;orthogonalLoop=1;jettySize=auto;html=1;" edge="1" parent="1" source="8bAAXkou12h0lEfON1XA-11" target="8bAAXkou12h0lEfON1XA-13">
          <mxGeometry relative="1" as="geometry">
            <mxPoint x="482" y="630" as="sourcePoint" />
            <mxPoint x="552" y="630" as="targetPoint" />
          </mxGeometry>
        </mxCell>
        <mxCell id="Xvav63jD-Fan8T9vVufA-7" value="&lt;font style=&quot;font-size: 25px;&quot;&gt;да&lt;/font&gt;" style="edgeLabel;html=1;align=center;verticalAlign=middle;resizable=0;points=[];" vertex="1" connectable="0" parent="Xvav63jD-Fan8T9vVufA-6">
          <mxGeometry x="-0.1992" y="-2" relative="1" as="geometry">
            <mxPoint as="offset" />
          </mxGeometry>
        </mxCell>
        <mxCell id="Xvav63jD-Fan8T9vVufA-8" value="" style="edgeStyle=orthogonalEdgeStyle;rounded=0;orthogonalLoop=1;jettySize=auto;html=1;" edge="1" parent="1" source="8bAAXkou12h0lEfON1XA-15" target="8bAAXkou12h0lEfON1XA-17">
          <mxGeometry relative="1" as="geometry">
            <mxPoint x="492" y="640" as="sourcePoint" />
            <mxPoint x="562" y="640" as="targetPoint" />
          </mxGeometry>
        </mxCell>
        <mxCell id="Xvav63jD-Fan8T9vVufA-9" value="&lt;font style=&quot;font-size: 25px;&quot;&gt;да&lt;/font&gt;" style="edgeLabel;html=1;align=center;verticalAlign=middle;resizable=0;points=[];" vertex="1" connectable="0" parent="Xvav63jD-Fan8T9vVufA-8">
          <mxGeometry x="-0.1992" y="-2" relative="1" as="geometry">
            <mxPoint as="offset" />
          </mxGeometry>
        </mxCell>
        <mxCell id="Xvav63jD-Fan8T9vVufA-10" value="" style="edgeStyle=orthogonalEdgeStyle;rounded=0;orthogonalLoop=1;jettySize=auto;html=1;" edge="1" parent="1" source="8bAAXkou12h0lEfON1XA-23" target="8bAAXkou12h0lEfON1XA-24">
          <mxGeometry relative="1" as="geometry">
            <mxPoint x="502" y="650" as="sourcePoint" />
            <mxPoint x="572" y="650" as="targetPoint" />
          </mxGeometry>
        </mxCell>
        <mxCell id="Xvav63jD-Fan8T9vVufA-11" value="&lt;font style=&quot;font-size: 25px;&quot;&gt;да&lt;/font&gt;" style="edgeLabel;html=1;align=center;verticalAlign=middle;resizable=0;points=[];" vertex="1" connectable="0" parent="Xvav63jD-Fan8T9vVufA-10">
          <mxGeometry x="-0.1992" y="-2" relative="1" as="geometry">
            <mxPoint as="offset" />
          </mxGeometry>
        </mxCell>
        <mxCell id="Xvav63jD-Fan8T9vVufA-12" value="" style="edgeStyle=orthogonalEdgeStyle;rounded=0;orthogonalLoop=1;jettySize=auto;html=1;" edge="1" parent="1" source="8bAAXkou12h0lEfON1XA-27" target="8bAAXkou12h0lEfON1XA-28">
          <mxGeometry relative="1" as="geometry">
            <mxPoint x="893" y="641" as="sourcePoint" />
            <mxPoint x="957" y="641" as="targetPoint" />
          </mxGeometry>
        </mxCell>
        <mxCell id="Xvav63jD-Fan8T9vVufA-13" value="&lt;font style=&quot;font-size: 25px;&quot;&gt;да&lt;/font&gt;" style="edgeLabel;html=1;align=center;verticalAlign=middle;resizable=0;points=[];" vertex="1" connectable="0" parent="Xvav63jD-Fan8T9vVufA-12">
          <mxGeometry x="-0.1992" y="-2" relative="1" as="geometry">
            <mxPoint as="offset" />
          </mxGeometry>
        </mxCell>
        <mxCell id="Xvav63jD-Fan8T9vVufA-14" value="" style="edgeStyle=orthogonalEdgeStyle;rounded=0;orthogonalLoop=1;jettySize=auto;html=1;" edge="1" parent="1" source="8bAAXkou12h0lEfON1XA-30" target="8bAAXkou12h0lEfON1XA-31">
          <mxGeometry relative="1" as="geometry">
            <mxPoint x="903" y="651" as="sourcePoint" />
            <mxPoint x="967" y="651" as="targetPoint" />
          </mxGeometry>
        </mxCell>
        <mxCell id="Xvav63jD-Fan8T9vVufA-15" value="&lt;font style=&quot;font-size: 25px;&quot;&gt;да&lt;/font&gt;" style="edgeLabel;html=1;align=center;verticalAlign=middle;resizable=0;points=[];" vertex="1" connectable="0" parent="Xvav63jD-Fan8T9vVufA-14">
          <mxGeometry x="-0.1992" y="-2" relative="1" as="geometry">
            <mxPoint as="offset" />
          </mxGeometry>
        </mxCell>
        <mxCell id="Xvav63jD-Fan8T9vVufA-16" value="" style="edgeStyle=orthogonalEdgeStyle;rounded=0;orthogonalLoop=1;jettySize=auto;html=1;" edge="1" parent="1" source="8bAAXkou12h0lEfON1XA-37" target="8bAAXkou12h0lEfON1XA-38">
          <mxGeometry relative="1" as="geometry">
            <mxPoint x="913" y="661" as="sourcePoint" />
            <mxPoint x="977" y="661" as="targetPoint" />
          </mxGeometry>
        </mxCell>
        <mxCell id="Xvav63jD-Fan8T9vVufA-17" value="&lt;font style=&quot;font-size: 25px;&quot;&gt;да&lt;/font&gt;" style="edgeLabel;html=1;align=center;verticalAlign=middle;resizable=0;points=[];" vertex="1" connectable="0" parent="Xvav63jD-Fan8T9vVufA-16">
          <mxGeometry x="-0.1992" y="-2" relative="1" as="geometry">
            <mxPoint as="offset" />
          </mxGeometry>
        </mxCell>
        <mxCell id="Xvav63jD-Fan8T9vVufA-18" value="" style="edgeStyle=orthogonalEdgeStyle;rounded=0;orthogonalLoop=1;jettySize=auto;html=1;" edge="1" parent="1" source="8bAAXkou12h0lEfON1XA-41" target="8bAAXkou12h0lEfON1XA-42">
          <mxGeometry relative="1" as="geometry">
            <mxPoint x="1319" y="620" as="sourcePoint" />
            <mxPoint x="1389" y="620" as="targetPoint" />
          </mxGeometry>
        </mxCell>
        <mxCell id="Xvav63jD-Fan8T9vVufA-19" value="&lt;font style=&quot;font-size: 25px;&quot;&gt;да&lt;/font&gt;" style="edgeLabel;html=1;align=center;verticalAlign=middle;resizable=0;points=[];" vertex="1" connectable="0" parent="Xvav63jD-Fan8T9vVufA-18">
          <mxGeometry x="-0.1992" y="-2" relative="1" as="geometry">
            <mxPoint as="offset" />
          </mxGeometry>
        </mxCell>
        <mxCell id="Xvav63jD-Fan8T9vVufA-21" value="" style="edgeStyle=orthogonalEdgeStyle;rounded=0;orthogonalLoop=1;jettySize=auto;html=1;" edge="1" parent="1" source="8bAAXkou12h0lEfON1XA-44" target="8bAAXkou12h0lEfON1XA-45">
          <mxGeometry relative="1" as="geometry">
            <mxPoint x="1319" y="455" as="sourcePoint" />
            <mxPoint x="1389" y="455" as="targetPoint" />
          </mxGeometry>
        </mxCell>
        <mxCell id="Xvav63jD-Fan8T9vVufA-22" value="&lt;font style=&quot;font-size: 25px;&quot;&gt;да&lt;/font&gt;" style="edgeLabel;html=1;align=center;verticalAlign=middle;resizable=0;points=[];" vertex="1" connectable="0" parent="Xvav63jD-Fan8T9vVufA-21">
          <mxGeometry x="-0.1992" y="-2" relative="1" as="geometry">
            <mxPoint as="offset" />
          </mxGeometry>
        </mxCell>
        <mxCell id="Xvav63jD-Fan8T9vVufA-25" value="" style="edgeStyle=orthogonalEdgeStyle;rounded=0;orthogonalLoop=1;jettySize=auto;html=1;" edge="1" parent="1" source="8bAAXkou12h0lEfON1XA-11" target="8bAAXkou12h0lEfON1XA-15">
          <mxGeometry relative="1" as="geometry">
            <mxPoint x="407" y="590" as="sourcePoint" />
            <mxPoint x="407" y="530" as="targetPoint" />
          </mxGeometry>
        </mxCell>
        <mxCell id="Xvav63jD-Fan8T9vVufA-26" value="&lt;font style=&quot;font-size: 25px;&quot;&gt;нет&lt;br&gt;&lt;/font&gt;" style="edgeLabel;html=1;align=center;verticalAlign=middle;resizable=0;points=[];" vertex="1" connectable="0" parent="Xvav63jD-Fan8T9vVufA-25">
          <mxGeometry x="-0.2059" y="-1" relative="1" as="geometry">
            <mxPoint as="offset" />
          </mxGeometry>
        </mxCell>
        <mxCell id="Xvav63jD-Fan8T9vVufA-27" value="" style="edgeStyle=orthogonalEdgeStyle;rounded=0;orthogonalLoop=1;jettySize=auto;html=1;" edge="1" parent="1" source="8bAAXkou12h0lEfON1XA-27" target="8bAAXkou12h0lEfON1XA-30">
          <mxGeometry relative="1" as="geometry">
            <mxPoint x="417" y="600" as="sourcePoint" />
            <mxPoint x="417" y="540" as="targetPoint" />
          </mxGeometry>
        </mxCell>
        <mxCell id="Xvav63jD-Fan8T9vVufA-28" value="&lt;font style=&quot;font-size: 25px;&quot;&gt;нет&lt;br&gt;&lt;/font&gt;" style="edgeLabel;html=1;align=center;verticalAlign=middle;resizable=0;points=[];" vertex="1" connectable="0" parent="Xvav63jD-Fan8T9vVufA-27">
          <mxGeometry x="-0.2059" y="-1" relative="1" as="geometry">
            <mxPoint as="offset" />
          </mxGeometry>
        </mxCell>
        <mxCell id="Xvav63jD-Fan8T9vVufA-29" value="" style="edgeStyle=orthogonalEdgeStyle;rounded=0;orthogonalLoop=1;jettySize=auto;html=1;" edge="1" parent="1" source="8bAAXkou12h0lEfON1XA-23" target="8bAAXkou12h0lEfON1XA-27">
          <mxGeometry relative="1" as="geometry">
            <mxPoint x="818" y="450" as="sourcePoint" />
            <mxPoint x="818" y="370" as="targetPoint" />
          </mxGeometry>
        </mxCell>
        <mxCell id="Xvav63jD-Fan8T9vVufA-30" value="&lt;font style=&quot;font-size: 25px;&quot;&gt;нет&lt;br&gt;&lt;/font&gt;" style="edgeLabel;html=1;align=center;verticalAlign=middle;resizable=0;points=[];" vertex="1" connectable="0" parent="Xvav63jD-Fan8T9vVufA-29">
          <mxGeometry x="-0.2059" y="-1" relative="1" as="geometry">
            <mxPoint as="offset" />
          </mxGeometry>
        </mxCell>
        <mxCell id="Xvav63jD-Fan8T9vVufA-31" value="" style="edgeStyle=orthogonalEdgeStyle;rounded=0;orthogonalLoop=1;jettySize=auto;html=1;" edge="1" parent="1" source="8bAAXkou12h0lEfON1XA-37" target="8bAAXkou12h0lEfON1XA-41">
          <mxGeometry relative="1" as="geometry">
            <mxPoint x="818" y="601" as="sourcePoint" />
            <mxPoint x="818" y="530" as="targetPoint" />
          </mxGeometry>
        </mxCell>
        <mxCell id="Xvav63jD-Fan8T9vVufA-32" value="&lt;font style=&quot;font-size: 25px;&quot;&gt;нет&lt;br&gt;&lt;/font&gt;" style="edgeLabel;html=1;align=center;verticalAlign=middle;resizable=0;points=[];" vertex="1" connectable="0" parent="Xvav63jD-Fan8T9vVufA-31">
          <mxGeometry x="-0.2059" y="-1" relative="1" as="geometry">
            <mxPoint as="offset" />
          </mxGeometry>
        </mxCell>
        <mxCell id="Xvav63jD-Fan8T9vVufA-33" value="" style="edgeStyle=orthogonalEdgeStyle;rounded=0;orthogonalLoop=1;jettySize=auto;html=1;" edge="1" parent="1" source="8bAAXkou12h0lEfON1XA-41" target="8bAAXkou12h0lEfON1XA-44">
          <mxGeometry relative="1" as="geometry">
            <mxPoint x="1234" y="570" as="sourcePoint" />
            <mxPoint x="1234" y="510" as="targetPoint" />
          </mxGeometry>
        </mxCell>
        <mxCell id="Xvav63jD-Fan8T9vVufA-34" value="&lt;font style=&quot;font-size: 25px;&quot;&gt;нет&lt;br&gt;&lt;/font&gt;" style="edgeLabel;html=1;align=center;verticalAlign=middle;resizable=0;points=[];" vertex="1" connectable="0" parent="Xvav63jD-Fan8T9vVufA-33">
          <mxGeometry x="-0.2059" y="-1" relative="1" as="geometry">
            <mxPoint as="offset" />
          </mxGeometry>
        </mxCell>
      </root>
    </mxGraphModel>
  </diagram>
</mxfile>
